<?xml version="1.0" encoding="UTF-8" standalone="no"?><!DOCTYPE svg PUBLIC "-//W3C//DTD SVG 1.1//EN" "http://www.w3.org/Graphics/SVG/1.1/DTD/svg11.dtd"><svg width="100%" height="100%" viewBox="0 0 162 23" version="1.1" xmlns="http://www.w3.org/2000/svg" xmlns:xlink="http://www.w3.org/1999/xlink" xml:space="preserve" xmlns:serif="http://www.serif.com/" style="fill-rule:evenodd;clip-rule:evenodd;stroke-linejoin:round;stroke-miterlimit:2;"><g><path d="M28.613,22.302c2.976,0 5.043,-1.378 5.826,-3.602l0,3.258l3.508,0l0,-17.917l-3.508,0l0,9.021c0,3.947 -1.378,6.171 -4.761,6.171c-3.383,0 -4.792,-1.848 -4.792,-5.732l0,-9.459l-3.508,0l0,9.741c0,5.638 2.287,8.52 7.236,8.52Z" style="fill-rule:nonzero;"/><path d="M49.818,22.208c0.752,0 1.754,-0.094 2.443,-0.251l-0.47,-2.725c-0.689,0.094 -1.096,0.157 -1.441,0.157c-2.725,0 -3.696,-1.284 -3.696,-4.98l0,-7.643l5.294,0l0,-2.725l-5.294,0l0,-4.041l-3.539,0.752l0,3.289l-2.6,0l0,2.725l2.6,0l0,8.05c0,5.481 2.099,7.392 6.703,7.392Z" style="fill-rule:nonzero;"/><path d="M66.26,8.58c-0.831,-1.195 -2.602,-1.971 -4.508,-1.971c-2.506,0 -4.009,0.845 -4.009,2.316c0,4.07 12.028,0.313 12.028,7.737c0,3.447 -3.038,5.608 -7.831,5.608c-3.68,-0 -6.736,-1.507 -8.08,-3.905l2.805,-1.58c1,1.484 2.771,2.479 5.276,2.479c2.788,0 4.291,-0.878 4.291,-2.507c0,-4.105 -11.934,-0.376 -11.934,-7.893c0,-3.068 3.258,-5.135 7.392,-5.135c2.929,0 5.883,1.317 7.224,3.381c-1.745,0.996 -1.961,1.089 -2.653,1.472Z"/><path d="M9.334,3.697c5.151,0 9.334,4.182 9.334,9.334c0,5.151 -4.182,9.334 -9.334,9.334c-5.151,0 -9.334,-4.182 -9.334,-9.334c0,-5.151 4.182,-9.334 9.334,-9.334Zm0,3.373c-3.29,0 -5.96,2.671 -5.96,5.96c0,3.29 2.671,5.96 5.96,5.96c3.29,0 5.96,-2.671 5.96,-5.96c0,-3.29 -2.671,-5.96 -5.96,-5.96Z"/><path d="M76.293,21.091c-2.767,-1.62 -4.626,-4.625 -4.626,-8.06c0,-5.151 4.182,-9.334 9.334,-9.334c5.151,0 9.334,4.182 9.334,9.334c0,3.435 -1.86,6.439 -4.626,8.06c-0.865,-1.122 -2.122,-1.927 -3.566,-2.209c2.744,-0.533 4.819,-2.952 4.819,-5.851c0,-3.29 -2.671,-5.96 -5.96,-5.96c-3.29,0 -5.96,2.671 -5.96,5.96c0,2.899 2.075,5.318 4.819,5.851c-1.444,0.281 -2.701,1.086 -3.566,2.209Z"/><path d="M100.365,22.302c2.976,0 5.043,-1.378 5.826,-3.602l0,3.258l3.508,0l0,-17.917l-3.508,0l0,9.021c0,3.947 -1.378,6.171 -4.761,6.171c-3.383,0 -4.792,-1.848 -4.792,-5.732l0,-9.459l-3.508,0l0,9.741c0,5.638 2.287,8.52 7.236,8.52Z" style="fill-rule:nonzero;"/><path d="M114.098,21.957l3.508,0l0,-8.864c0,-4.385 1.911,-6.546 5.92,-5.795l0.376,-3.383c-3.727,-0.532 -5.607,1.222 -6.296,3.132l0,-3.007l-3.508,0l0,17.917Z" style="fill-rule:nonzero;"/><path d="M133.691,22.302c4.291,0 7.298,-2.287 8.269,-6.139l-3.007,-0.595c-0.783,2.349 -2.662,3.727 -5.106,3.727c-3.258,0 -5.513,-2.568 -5.513,-6.296c0,-3.759 2.255,-6.327 5.513,-6.327c2.631,0 4.291,1.222 5.168,3.759l3.007,-0.595c-1.128,-4.072 -3.821,-6.139 -8.332,-6.139c-5.168,0 -8.864,3.884 -8.864,9.303c0,5.419 3.696,9.303 8.864,9.303Z" style="fill-rule:nonzero;"/><path d="M153.411,22.302c4.041,0 6.86,-1.691 8.301,-5.012l-3.226,-0.501c-0.877,1.723 -2.506,2.568 -5.012,2.568c-3.477,0 -5.638,-1.973 -5.763,-5.45l14.252,0c0.439,-6.014 -3.007,-10.211 -8.708,-10.211c-5.356,0 -9.052,3.79 -9.052,9.303c0,5.607 3.633,9.303 9.209,9.303Zm-5.607,-11.151c0.407,-3.101 2.506,-4.667 5.513,-4.667c3.164,0 5.106,1.817 5.356,4.667l-10.869,0Z" style="fill-rule:nonzero;"/></g></svg>