<svg preserveAspectRatio="none" overflow="visible" style="display: block;" width="44" height="36" viewBox="0 0 44 36" fill="none" xmlns="http://www.w3.org/2000/svg">
<g id="Group 8665">
<path id="Vector 217" d="M5.5 33.5V2.5C5.5 1.94772 5.94772 1.5 6.5 1.5H21.5C22.0523 1.5 22.5 1.94772 22.5 2.5V33.5" stroke="#CCF043" stroke-width="3" stroke-linecap="round"/>
<path id="Vector 218" d="M22.5 33.5V14.5C22.5 13.9477 22.9477 13.5 23.5 13.5H38.5C39.0523 13.5 39.5 13.9477 39.5 14.5V33.5" stroke="#CCF043" stroke-width="3" stroke-linecap="round"/>
<path id="Vector 219" d="M1.5 34.5L42.5 34.5" stroke="#CCF043" stroke-width="3" stroke-linecap="round"/>
<path id="Vector 220" d="M11.5 9.5V12.5" stroke="#CCF043" stroke-width="3" stroke-linecap="round"/>
<path id="Vector 222" d="M16.5 9.5V12.5" stroke="#CCF043" stroke-width="3" stroke-linecap="round"/>
<path id="Vector 221" d="M11.5 19.5L11.5 22.5" stroke="#CCF043" stroke-width="3" stroke-linecap="round"/>
<path id="Vector 224" d="M28.5 19.5L28.5 22.5" stroke="#CCF043" stroke-width="3" stroke-linecap="round"/>
<path id="Vector 223" d="M16.5 19.5L16.5 22.5" stroke="#CCF043" stroke-width="3" stroke-linecap="round"/>
<path id="Vector 225" d="M33.5 19.5L33.5 22.5" stroke="#CCF043" stroke-width="3" stroke-linecap="round"/>
</g>
</svg>
