<svg preserveAspectRatio="none" overflow="visible" style="display: block;" width="1218" height="420" viewBox="0 0 1218 420" fill="none" xmlns="http://www.w3.org/2000/svg">
<g id="Ellipse 53">
<mask id="path-1-inside-1_0_7" fill="white">
<path d="M1218 420C1218 364.845 1202.25 310.23 1171.64 259.273C1141.04 208.316 1096.18 162.016 1039.63 123.015C983.077 84.0145 915.941 53.0776 842.054 31.9706C768.167 10.8636 688.975 -2.41091e-06 609 0C529.025 2.41091e-06 449.833 10.8636 375.946 31.9706C302.058 53.0776 234.923 84.0146 178.372 123.015C121.821 162.016 76.9625 208.316 46.3573 259.273C15.7522 310.23 -6.99164e-06 364.845 0 420L609 420H1218Z"/>
</mask>
<path d="M1218 420C1218 364.845 1202.25 310.23 1171.64 259.273C1141.04 208.316 1096.18 162.016 1039.63 123.015C983.077 84.0145 915.941 53.0776 842.054 31.9706C768.167 10.8636 688.975 -2.41091e-06 609 0C529.025 2.41091e-06 449.833 10.8636 375.946 31.9706C302.058 53.0776 234.923 84.0146 178.372 123.015C121.821 162.016 76.9625 208.316 46.3573 259.273C15.7522 310.23 -6.99164e-06 364.845 0 420L609 420H1218Z" stroke="url(#paint0_linear_0_7)" stroke-width="2.4" mask="url(#path-1-inside-1_0_7)"/>
</g>
<defs>
<linearGradient id="paint0_linear_0_7" x1="609" y1="0" x2="609" y2="237" gradientUnits="userSpaceOnUse">
<stop stop-color="#8A38F5"/>
<stop offset="1" stop-color="#8A38F5" stop-opacity="0"/>
</linearGradient>
</defs>
</svg>
